<svg width="256" height="256" viewBox="0 0 256 256" fill="none" xmlns="http://www.w3.org/2000/svg" role="img" aria-label="ComPsych Design System">
<rect width="256" height="256" fill="white"/>
<path d="M127.935 148.237C150.585 148.237 170.526 160.06 181.911 177.859H73.9565C85.3407 160.06 105.282 148.237 127.932 148.237H127.935ZM127.936 112.517C160.581 112.517 187.135 139.075 187.135 171.716C187.135 172.623 187.109 173.526 187.069 174.426C174.568 154.961 152.725 142.039 127.929 142.039C103.133 142.039 81.3005 154.953 68.7993 174.411C68.7587 173.519 68.7368 172.619 68.7368 171.716C68.7369 139.071 95.295 112.517 127.936 112.517ZM127.936 76.8C165.543 76.8 196.138 107.395 196.138 145.002C196.138 152.519 194.91 159.756 192.654 166.525C190.003 133.139 161.989 106.787 127.936 106.787C93.883 106.787 65.8718 133.142 63.2172 166.525C60.9611 159.756 59.7338 152.519 59.7338 145.002C59.734 107.395 90.3291 76.8 127.936 76.8Z" fill="#070F36"/>
</svg>
